<?xml version="1.0" standalone="no"?>
<!DOCTYPE svg PUBLIC "-//W3C//DTD SVG 20010904//EN"
 "http://www.w3.org/TR/2001/REC-SVG-20010904/DTD/svg10.dtd">
<svg version="1.0" xmlns="http://www.w3.org/2000/svg"
 width="96.000000pt" height="96.000000pt" viewBox="0 0 96.000000 96.000000"
 preserveAspectRatio="xMidYMid meet">
<metadata>
Created by potrace 1.10, written by Peter Selinger 2001-2011
</metadata>
<g transform="translate(0.000000,96.000000) scale(0.050000,-0.050000)"
fill="white" stroke="none">
<path d="M788 1642 c-99 -45 -169 -133 -223 -282 -32 -87 -56 -118 -117 -152
-143 -80 -217 -260 -204 -491 6 -106 7 -107 76 -114 82 -7 120 -34 120 -84 0
-67 84 -139 180 -155 78 -13 95 -25 124 -87 99 -210 333 -210 432 0 29 62 46
74 124 87 96 16 180 88 180 155 0 50 38 77 120 84 173 17 73 492 -128 605 -61
34 -85 65 -117 152 -79 215 -207 319 -395 319 -49 0 -127 -17 -172 -37z m349
-149 c29 -30 80 -118 113 -197 51 -122 72 -150 140 -185 141 -72 241 -411 122
-411 -67 0 -152 -82 -152 -147 0 -53 -33 -73 -117 -73 -75 0 -129 -43 -172
-138 -20 -45 -53 -86 -74 -93 -64 -20 -110 9 -148 93 -43 95 -97 138 -172 138
-84 0 -117 20 -117 73 0 65 -85 147 -152 147 -118 0 -18 340 119 408 59 28 87
60 116 130 115 278 171 330 344 315 71 -5 111 -21 150 -60z"/>
<path d="M741 1281 c-53 -97 1 -237 69 -181 36 30 40 162 6 196 -34 34 -51 30
-75 -15z"/>
<path d="M984 1296 c-66 -66 -3 -253 66 -196 53 44 30 220 -30 220 -7 0 -23
-11 -36 -24z"/>
</g>
</svg>
